<svg width="18.000000" height="18.000000" viewBox="0 0 18 18" fill="none" xmlns="http://www.w3.org/2000/svg" xmlns:xlink="http://www.w3.org/1999/xlink">
	<desc>
			Created with Pixso.
	</desc>
	<defs/>
	<path id="Vector" d="M2.37891 5.57812L9 9.41016L15.5781 5.60156" stroke="#0F0000" stroke-opacity="1.000000" stroke-width="1.500000" stroke-linejoin="round" stroke-linecap="round"/>
	<path id="Vector" d="M9 9.40625L9 9.40625" stroke="#0F0000" stroke-opacity="1.000000" stroke-width="1.500000" stroke-linejoin="round" stroke-linecap="round"/>
	<path id="Vector" d="M3.44141 4.08203C2.53516 4.58203 1.79297 5.84375 1.79297 6.87891L1.79297 11.1172C1.79297 12.1523 2.53516 13.4102 3.44141 13.9141L7.44922 16.1406C8.30469 16.6133 9.70703 16.6133 10.5586 16.1406L14.5664 13.9141C15.4727 13.4102 16.2148 12.1523 16.2148 11.1172L16.2148 6.87891C16.2148 5.84375 15.4727 4.58203 14.5664 4.08203L10.5586 1.85156C9.69922 1.38281 8.30469 1.38281 7.44922 1.85938L3.44141 4.08203Z" stroke="#0F0000" stroke-opacity="1.000000" stroke-width="1.500000" stroke-linejoin="round"/>
	<g opacity="0.000000"/>
</svg>
