<svg width="18.000000" height="18.000000" viewBox="0 0 18 18" fill="none" xmlns="http://www.w3.org/2000/svg" xmlns:xlink="http://www.w3.org/1999/xlink">
	<desc>
			Created with Pixso.
	</desc>
	<defs/>
	<path id="Vector" d="M7.10547 10.8984C6.61719 10.4102 6.31641 9.74219 6.31641 9C6.31641 7.51562 7.51562 6.31641 9 6.31641C9.74219 6.31641 10.4102 6.61719 10.8984 7.10547L7.10547 10.8984Z" stroke="#0F0000" stroke-opacity="1.000000" stroke-width="1.500000" stroke-linejoin="round"/>
	<path id="Vector" d="M13.3633 4.32812C12.0508 3.33594 10.5508 2.79688 9 2.79688C6.35156 2.79688 3.88281 4.35547 2.16797 7.05859C1.49219 8.11328 1.49219 9.89062 2.16797 10.9492C2.75781 11.8789 3.44922 12.6836 4.19922 13.3281" stroke="#0F0000" stroke-opacity="1.000000" stroke-width="1.500000" stroke-linejoin="round" stroke-linecap="round"/>
	<path id="Vector" d="M6.31641 14.6484C7.17188 15.0078 8.07812 15.2031 9 15.2031C11.6484 15.2031 14.1172 13.6445 15.832 10.9453C16.5078 9.88672 16.5078 8.10938 15.832 7.05078C15.5859 6.66016 15.3164 6.29297 15.0391 5.94922" stroke="#292D32" stroke-opacity="1.000000" stroke-width="1.500000" stroke-linejoin="round" stroke-linecap="round"/>
	<path id="Vector" d="M11.6289 9.52344C11.4375 10.582 10.5742 11.4453 9.51562 11.6367" stroke="#292D32" stroke-opacity="1.000000" stroke-width="1.500000" stroke-linejoin="round" stroke-linecap="round"/>
	<path id="Vector" d="M7.10156 10.8984L1.5 16.5" stroke="#292D32" stroke-opacity="1.000000" stroke-width="1.500000" stroke-linejoin="round" stroke-linecap="round"/>
	<path id="Vector" d="M16.5 1.5L10.8984 7.10156" stroke="#292D32" stroke-opacity="1.000000" stroke-width="1.500000" stroke-linejoin="round" stroke-linecap="round"/>
	<g opacity="0.000000"/>
</svg>
