<svg width="18.000000" height="18.000000" viewBox="0 0 18 18" fill="none" xmlns="http://www.w3.org/2000/svg" xmlns:xlink="http://www.w3.org/1999/xlink">
	<desc>
			Created with Pixso.
	</desc>
	<defs/>
	<path id="Vector" d="M9 11.6875C7.51562 11.6875 6.31641 10.4883 6.31641 9C6.31641 7.51562 7.51562 6.31641 9 6.31641C10.4883 6.31641 11.6875 7.51562 11.6875 9C11.6875 10.4883 10.4883 11.6875 9 11.6875Z" stroke="#0F0000" stroke-opacity="1.000000" stroke-width="1.500000" stroke-linejoin="round"/>
	<path id="Vector" d="M15.832 10.9414C16.5078 9.88281 16.5078 8.10547 15.832 7.05078C14.1133 4.34766 11.6445 2.78906 9 2.78906C6.35156 2.78906 3.88281 4.34766 2.16797 7.05078C1.49219 8.10547 1.49219 9.88281 2.16797 10.9414C3.88281 13.6406 6.35156 15.2031 9 15.2031C11.6445 15.2031 14.1133 13.6406 15.832 10.9414Z" stroke="#0F0000" stroke-opacity="1.000000" stroke-width="1.500000" stroke-linejoin="round"/>
	<g opacity="0.000000"/>
</svg>
