<svg width="18.000000" height="18.000000" viewBox="0 0 18 18" fill="none" xmlns="http://www.w3.org/2000/svg" xmlns:xlink="http://www.w3.org/1999/xlink">
	<desc>
			Created with Pixso.
	</desc>
	<defs/>
	<path id="Vector" d="M11.6992 4.875C14.25 4.875 14.5039 6.06641 14.6758 7.52344L15.3516 13.1484C15.5703 14.9922 15 16.5 12.375 16.5L5.63281 16.5C3 16.5 2.42969 14.9922 2.65234 13.1484L3.32812 7.52344C3.49219 6.06641 3.75 4.875 6.30078 4.875L11.6992 4.875Z" stroke="#0F0000" stroke-opacity="1.000000" stroke-width="1.500000" stroke-linejoin="round"/>
	<path id="Vector" d="M6 6L6 3.375C6 2.25 6.75 1.5 7.875 1.5L10.125 1.5C11.25 1.5 12 2.25 12 3.375L12 6" stroke="#0F0000" stroke-opacity="1.000000" stroke-width="1.500000" stroke-linejoin="round" stroke-linecap="round"/>
	<path id="Vector" d="M15.3086 12.7734L6 12.7734" stroke="#0F0000" stroke-opacity="1.000000" stroke-width="1.500000" stroke-linejoin="round" stroke-linecap="round"/>
	<g opacity="0.000000"/>
</svg>
