<svg width="18.000000" height="18.000000" viewBox="0 0 18 18" fill="none" xmlns="http://www.w3.org/2000/svg" xmlns:xlink="http://www.w3.org/1999/xlink">
	<desc>
			Created with Pixso.
	</desc>
	<defs/>
	<path id="Vector" d="M5.25 16.5C2.25 16.5 1.5 15.75 1.5 12.75L1.5 11.25C1.5 8.25 2.25 7.5 5.25 7.5L12.75 7.5C15.75 7.5 16.5 8.25 16.5 11.25L16.5 12.75C16.5 15.75 15.75 16.5 12.75 16.5L5.25 16.5Z" stroke="#0F0000" stroke-opacity="1.000000" stroke-width="1.500000" stroke-linejoin="round"/>
	<path id="Vector" d="M4.5 7.5L4.5 6C4.5 3.51562 5.25 1.5 9 1.5C12.375 1.5 13.5 3 13.5 5.25" stroke="#0F0000" stroke-opacity="1.000000" stroke-width="1.500000" stroke-linejoin="round" stroke-linecap="round"/>
	<path id="Vector" d="M9 13.875C7.96484 13.875 7.125 13.0352 7.125 12C7.125 10.9648 7.96484 10.125 9 10.125C10.0352 10.125 10.875 10.9648 10.875 12C10.875 13.0352 10.0352 13.875 9 13.875Z" stroke="#0F0000" stroke-opacity="1.000000" stroke-width="1.500000" stroke-linejoin="round"/>
	<g opacity="0.000000"/>
</svg>
