<svg xmlns="http://www.w3.org/2000/svg" width="314" height="125" viewBox="0 0 314 125" fill="none">
  <g filter="url(#filter0_d_2272_36420)">
    <path d="M52.7935 83.2095H5V64.9584L47.5363 1H73.8227V66.5455H84.9745V83.2095H73.8227V104H52.7935V83.2095ZM52.7935 66.5455V22.9014L24.914 66.5455H52.7935Z" fill="#FEFEFE"/>
    <path d="M150.833 104C145.925 104 141.909 103.846 138.786 103.538C135.663 103.23 132.261 102.614 128.58 101.691C124.788 100.664 121.721 99.2272 119.378 97.3797C117.036 95.4295 115.084 92.6582 113.522 89.0658C111.849 85.576 111.013 81.3677 111.013 76.4409V28.559C111.013 23.8376 111.794 19.6806 113.355 16.0882C114.917 12.4958 116.924 9.67315 119.378 7.62033C121.498 5.87544 124.398 4.48979 128.078 3.46338C131.759 2.33433 135.44 1.61585 139.121 1.30793C143.359 1.10264 147.263 1 150.833 1C155.852 1 159.867 1.15396 162.879 1.46189C165.891 1.66717 169.237 2.28301 172.918 3.30941C176.933 4.43847 180.112 5.92676 182.454 7.77429C184.797 9.62183 186.804 12.2905 188.478 15.7803C190.151 19.2701 190.987 23.5296 190.987 28.559V76.4409C190.987 81.1624 190.151 85.3194 188.478 88.9118C186.916 92.5042 184.908 95.2755 182.454 97.2257C180.224 98.9706 177.156 100.408 173.252 101.537C169.46 102.666 165.835 103.333 162.377 103.538C159.254 103.846 155.406 104 150.833 104ZM151.167 89.5277C155.852 89.5277 159.198 89.271 161.206 88.7578C163.214 88.142 164.552 87.0643 165.221 85.5247C165.891 83.9851 166.225 81.4703 166.225 77.9806V27.0194C166.225 23.5296 165.891 21.0149 165.221 19.4753C164.552 17.9357 163.214 16.9093 161.206 16.3961C159.198 15.7803 155.852 15.4724 151.167 15.4724C146.371 15.4724 142.913 15.7803 140.794 16.3961C138.786 16.9093 137.448 17.9357 136.779 19.4753C136.109 21.0149 135.775 23.5296 135.775 27.0194V77.9806C135.775 81.4703 136.109 83.9851 136.779 85.5247C137.448 87.0643 138.786 88.142 140.794 88.7578C142.913 89.271 146.371 89.5277 151.167 89.5277Z" fill="#FEFEFE"/>
    <path d="M264.819 83.2095H217.025V64.9584L259.562 1H285.848V66.5455H297V83.2095H285.848V104H264.819V83.2095ZM264.819 66.5455V22.9014L236.939 66.5455H264.819Z" fill="#FEFEFE"/>
    <path d="M4.5 83.2095V83.7095H5H52.2935V104V104.5H52.7935H73.8227H74.3227V104V83.7095H84.9745H85.4745V83.2095V66.5455V66.0455H84.9745H74.3227V1V0.5H73.8227H47.5363H47.2683L47.1199 0.723113L4.58367 64.6815L4.5 64.8073V64.9584V83.2095ZM128.45 102.173L128.45 102.173L128.459 102.176C132.159 103.104 135.585 103.725 138.737 104.036C141.883 104.346 145.917 104.5 150.833 104.5C155.411 104.5 159.273 104.346 162.416 104.037C165.914 103.828 169.573 103.154 173.393 102.017C177.333 100.877 180.465 99.4168 182.762 97.6196L182.765 97.6172C185.296 95.6058 187.348 92.7632 188.934 89.1167C190.641 85.4481 191.487 81.2189 191.487 76.4409V28.559C191.487 23.4764 190.642 19.1384 188.928 15.5641C187.232 12.0252 185.181 9.2884 182.764 7.38172C180.354 5.48063 177.108 3.96836 173.053 2.82808L173.052 2.82779C169.35 1.79549 165.972 1.1723 162.922 0.963622C159.887 0.653793 155.855 0.5 150.833 0.5C147.254 0.5 143.342 0.602908 139.097 0.808513L139.088 0.808937L139.079 0.809668C135.363 1.12052 131.649 1.84549 127.938 2.9835C124.217 4.02161 121.249 5.43235 119.06 7.23431L119.057 7.23682C116.532 9.34945 114.482 12.2409 112.897 15.8889C111.303 19.5557 110.513 23.7828 110.513 28.559V76.4409C110.513 81.4188 111.357 85.7021 113.068 89.2735C114.651 92.9137 116.643 95.7532 119.058 97.7639L119.058 97.7641L119.069 97.7722C121.478 99.6726 124.612 101.134 128.45 102.173ZM161.059 16.8741L161.071 16.8776L161.082 16.8805C162.979 17.3654 164.17 18.3098 164.763 19.6747C165.388 21.1139 165.725 23.5401 165.725 27.0194V77.9806C165.725 81.4599 165.388 83.8861 164.763 85.3253C164.167 86.6956 162.97 87.6913 161.071 88.2764C159.127 88.7708 155.84 89.0277 151.167 89.0277C146.386 89.0277 142.985 88.7712 140.926 88.2754C139.029 87.6902 137.832 86.6949 137.237 85.3253C136.612 83.8861 136.275 81.4599 136.275 77.9806V27.0194C136.275 23.5401 136.612 21.1139 137.237 19.6747C137.83 18.3098 139.021 17.3654 140.918 16.8805L140.926 16.8785L140.934 16.8763C142.98 16.2816 146.376 15.9724 151.167 15.9724C155.848 15.9724 159.129 16.282 161.059 16.8741ZM216.525 83.2095V83.7095H217.025H264.319V104V104.5H264.819H285.848H286.348V104V83.7095H297H297.5V83.2095V66.5455V66.0455H297H286.348V1V0.5H285.848H259.562H259.294L259.145 0.723113L216.609 64.6815L216.525 64.8073V64.9584V83.2095ZM25.8267 66.0455L52.2935 24.6129V66.0455H25.8267ZM237.852 66.0455L264.319 24.6129V66.0455H237.852Z" stroke="url(#paint0_angular_2272_36420)"/>
  </g>
  <defs>
    <filter id="filter0_d_2272_36420" x="0" y="0" width="314" height="125" filterUnits="userSpaceOnUse" color-interpolation-filters="sRGB">
      <feFlood flood-opacity="0" result="BackgroundImageFix"/>
      <feColorMatrix in="SourceAlpha" type="matrix" values="0 0 0 0 0 0 0 0 0 0 0 0 0 0 0 0 0 0 127 0" result="hardAlpha"/>
      <feOffset dx="6" dy="10"/>
      <feGaussianBlur stdDeviation="5"/>
      <feComposite in2="hardAlpha" operator="out"/>
      <feColorMatrix type="matrix" values="0 0 0 0 0.480052 0 0 0 0 0.480052 0 0 0 0 0.480052 0 0 0 0.19 0"/>
      <feBlend mode="normal" in2="BackgroundImageFix" result="effect1_dropShadow_2272_36420"/>
      <feBlend mode="normal" in="SourceGraphic" in2="effect1_dropShadow_2272_36420" result="shape"/>
    </filter>
    <radialGradient id="paint0_angular_2272_36420" cx="0" cy="0" r="1" gradientUnits="userSpaceOnUse" gradientTransform="translate(137.419 27.6779) rotate(21.2356) scale(116.566 64.7973)">
      <stop offset="0.464691" stop-color="#E0E0E0"/>
      <stop offset="0.966832" stop-color="white"/>
    </radialGradient>
  </defs>
</svg>