          <svg
            width="120"
            height="136"
            viewBox="0 0 120 136"
            fill="none"
            xmlns="http://www.w3.org/2000/svg"
          >
            <path
              id="Vector"
              fillRule="evenodd"
              clipRule="evenodd"
              d="M54.5969 0.0220174C50.1984 0.256811 42.2829 0.885103 42.1265 1.01207C42.0948 1.03772 41.9468 2.19038 41.7973 3.57364C41.6479 4.95689 41.4914 6.11637 41.4496 6.15029C41.4078 6.18435 40.5072 6.27029 39.4485 6.34145C34.2644 6.68988 28.8225 8.07719 20.6991 11.1215L18.3562 11.9996L18.1408 14.4105C17.8406 17.7684 17.9225 17.5603 16.8187 17.7714C13.5951 18.3883 8.71817 20.0376 5.43129 21.6228C4.1489 22.2411 4.00123 22.3573 3.99408 22.7553C3.98961 22.9991 3.20173 30.9273 2.24293 40.3734L0.5 57.5481L1.41768 58.7801C5.19852 63.8555 59.6853 135.853 59.8555 135.998C60.0281 136.145 66.1645 128.125 89.7862 96.8809L119.5 57.5786L117.802 40.606C116.869 31.2711 116.043 23.3133 115.967 22.922L115.829 22.2103L113.534 21.1572C110.83 19.9159 107.749 18.8608 104.653 18.1151C103.425 17.8193 102.367 17.5378 102.301 17.4894C102.235 17.4408 102.053 16.1973 101.897 14.7258C101.74 13.2543 101.553 12.0085 101.48 11.9574C101.251 11.7964 94.6229 9.41363 93.0346 8.92129C87.801 7.2986 82.9162 6.31855 80.0296 6.31174C78.3448 6.30783 78.4567 6.47581 78.2014 3.5677L77.9751 0.989021L75.3708 0.740894C69.8812 0.21797 67.0101 0.0701364 61.3906 0.0207137C58.1949 -0.00740359 55.1377 -0.00682457 54.5969 0.0220174ZM54.9545 4.57122C51.2952 4.71239 47.3896 4.99429 47.2557 5.12705C47.2004 5.18183 45.5226 11.2271 43.5272 18.5607C41.532 25.8944 39.8318 31.9531 39.7492 32.0244C39.6648 32.0973 39.5608 32.0024 39.5114 31.807C39.463 31.6162 39.0563 26.8998 38.6073 21.3264C38.1584 15.7529 37.7463 11.1566 37.6916 11.1123C37.5243 10.9766 33.8062 11.6482 31.8561 12.1662C30.8433 12.4354 28.5944 13.1642 26.8586 13.7862L23.7028 14.9168L23.5957 15.7967C23.3095 18.1491 23.1069 21.5073 22.9526 26.4597C22.8595 29.4489 22.7812 31.9483 22.7787 32.014C22.7762 32.0797 22.6455 32.1123 22.4883 32.0865C22.3181 32.0586 21.0266 30.2052 19.2914 27.4986C17.6902 25.0009 16.2943 22.8879 16.1896 22.803C16.0546 22.6936 15.5983 22.7637 14.6274 23.0431C12.9653 23.5216 9.63763 24.7708 9.48209 24.9747C9.42023 25.0557 9.08949 27.8639 8.74677 31.2153L8.12372 37.3086L10.8987 45.037C12.425 49.2876 13.7846 53.071 13.9201 53.4447C14.1086 53.9636 14.117 54.1575 13.9562 54.2657C13.8052 54.3673 12.9157 53.5865 10.8153 51.5086C9.20355 49.9143 7.7701 48.5742 7.62993 48.5306C7.48959 48.487 7.28596 48.5233 7.17726 48.6115C7.06481 48.7026 6.8104 50.4407 6.58782 52.6367L6.19629 56.5017L32.782 91.6643C59.3121 126.754 59.3687 126.827 59.9768 126.867L60.586 126.908L86.9561 92.0285C101.46 72.8448 113.433 56.9887 113.563 56.7927C113.763 56.4926 113.739 55.8283 113.411 52.5718C113.037 48.8579 112.95 48.4981 112.424 48.4919C112.321 48.4907 110.919 49.7941 109.308 51.3884C106.646 54.0229 105.907 54.6152 105.907 54.1135C105.907 54.018 107.246 50.2188 108.883 45.671L111.859 37.4022L111.288 31.4599C110.975 28.1916 110.683 25.3818 110.641 25.2157C110.584 24.9961 110.038 24.7125 108.637 24.1751C106.613 23.3984 104.415 22.6914 104.024 22.6914C103.897 22.6914 102.438 24.8116 100.783 27.4032C98.6714 30.7077 97.6922 32.1033 97.5041 32.0756C97.2844 32.0433 97.2292 31.6964 97.1984 30.1538C97.1321 26.8394 96.7652 19.5025 96.5503 17.1963L96.3421 14.9625L93.4816 13.9049C91.9083 13.3232 89.7764 12.6165 88.7439 12.3346C86.8782 11.8252 83.2623 11.1004 82.5731 11.0979C82.2231 11.0966 82.1886 11.3929 81.361 21.4928C80.8926 27.2106 80.4358 31.9485 80.3457 32.0215C80.2469 32.1017 80.143 32.0168 80.0831 31.807C80.0286 31.6162 78.3723 25.5586 76.4025 18.3459C74.4327 11.1333 72.7613 5.18357 72.6882 5.12429C72.2334 4.75558 60.037 4.37513 54.9545 4.57122ZM59.7295 14.8666C59.575 15.3041 56.7437 23.7168 53.4377 33.5615C50.1317 43.4061 47.3897 51.5636 47.3447 51.6892C47.2955 51.8261 47.4337 51.9916 47.6908 52.1031C48.0822 52.273 48.3943 52.1754 51.3351 50.9638C54.2792 49.7507 54.591 49.6533 55.021 49.8121L55.4908 49.9856V63.8761V77.7665H48.8954H42.2999L42.0347 77.223C41.889 76.9241 37.8459 68.4617 33.0503 58.4177C28.2547 48.3738 24.2817 40.1098 24.2214 40.0534C23.5694 39.442 23.3806 41.9498 23.1173 54.7219C23.0097 59.9432 22.8684 64.883 22.8032 65.6993C22.6888 67.1319 22.7408 67.3312 23.2289 67.3312C23.2662 67.3312 23.9501 66.6139 24.7485 65.7371C26.0913 64.2624 26.2358 64.1501 26.6772 64.2357C26.9394 64.2867 27.1611 64.3356 27.1695 64.3443C27.1779 64.353 29.8183 68.933 33.0369 74.5223L38.8891 84.6844L41.3797 87.0183C42.9891 88.5263 43.9588 89.3246 44.1202 89.2743C44.3784 89.194 44.3081 88.9607 43.0661 85.7741L42.6565 84.7234H49.0737H55.4908L55.498 96.7892L55.5051 108.855L57.4245 111.246C59.2679 113.543 59.3691 113.64 59.9814 113.681L60.6189 113.725L62.5244 111.318L64.4298 108.91V96.8167V84.7234H70.8779C76.9367 84.7234 77.3202 84.7387 77.2294 84.977C75.8213 88.6728 75.6792 89.1182 75.8599 89.2647C76.0916 89.4526 75.9819 89.5424 78.9087 86.7735L81.1079 84.6931L86.8832 74.6714C90.0596 69.1596 92.723 64.5759 92.8019 64.4851C92.8807 64.3946 93.1464 64.2838 93.3922 64.2389C93.7932 64.1657 93.9858 64.3208 95.2622 65.7443C96.0449 66.6171 96.7288 67.3302 96.7819 67.329C97.2889 67.3173 97.3239 67.0522 97.1471 64.5685C97.0482 63.1784 96.8807 57.7692 96.7749 52.5479C96.5575 41.8252 96.4708 40.2824 96.0739 40.0828C95.9264 40.0086 95.7829 39.9947 95.7548 40.0519C95.7267 40.1092 91.6627 48.6021 86.7233 58.925L77.7429 77.694L71.0863 77.732L64.4298 77.77V63.9303V50.0907L64.907 49.8373C65.3836 49.5841 65.3868 49.585 68.6279 50.9406C71.4739 52.1308 71.9198 52.2764 72.2627 52.1276C72.4778 52.0342 72.6519 51.8787 72.6499 51.7819C72.6478 51.6851 69.803 43.1605 66.3283 32.8385L60.0104 14.0712L59.7295 14.8666Z"
              fill="#FDFDFD"
            />
          </svg>