<svg width="74" height="42" viewBox="0 0 74 42" fill="none" xmlns="http://www.w3.org/2000/svg">
<title>logo</title>
<path d="M18.897 12.325C19.4341 12.9091 20.0689 13.3959 20.8014 13.7853C21.5826 14.1747 22.3395 14.4278 23.0719 14.5446C23.8532 14.6615 24.6101 14.642 25.3425 14.4862C26.075 14.2915 26.6609 13.9216 27.1004 13.3764C26.9539 14.1942 26.3923 14.9925 25.4158 15.7713V35.1057C25.4158 37.0528 24.5857 38.6884 22.9254 40.0124C21.3141 41.3753 18.9214 42.0373 15.7475 41.9984C16.7729 41.7258 17.5542 41.2974 18.0913 40.7133C18.6773 40.1292 19.1167 39.4866 19.4097 38.7857C19.7027 38.0848 19.8736 37.4033 19.9224 36.7413C19.9713 36.0793 19.9957 35.5146 19.9957 35.0473V28.4467C19.898 27.9016 19.7271 27.4343 19.483 27.0449C19.2388 26.6554 18.8238 26.3828 18.2378 26.2271C18.9703 26.0324 19.5562 25.935 19.9957 25.935V17.2316C19.4586 17.1537 18.9214 17.0369 18.3843 16.8811C17.896 16.6864 17.4077 16.4333 16.9194 16.1218L16.5532 16.3554V33.0613C17.481 33.295 18.3599 33.7038 19.19 34.288C18.897 34.7163 18.6285 35.0863 18.3843 35.3978C18.189 35.7093 17.9693 35.9819 17.7251 36.2156C17.5298 36.4492 17.3101 36.6634 17.0659 36.8581C16.8706 37.0528 16.6509 37.2865 16.4067 37.559C15.8208 36.7413 14.7953 36.0209 13.3305 35.3978C11.9144 34.7747 10.4739 34.3269 9.00904 34.0543C9.39968 33.8986 9.7659 33.7623 10.1077 33.6454C10.4495 33.5286 10.7913 33.4118 11.1331 33.295V28.5052C11.0355 27.96 10.8646 27.4927 10.6204 27.1033C10.3763 26.6749 9.96122 26.3828 9.37526 26.2271C10.1077 26.0324 10.6937 25.935 11.1331 25.935V18.3414C11.1331 17.7573 11.0843 17.3874 10.9866 17.2316L10.9134 17.1732C10.0833 17.0174 9.25319 16.6669 8.42309 16.1218L8.05687 16.3554V34.288C8.64282 34.249 9.1067 34.3853 9.44851 34.6968C9.79031 34.9694 10.0589 35.4951 10.2542 36.274C9.91239 36.0403 9.42409 35.9624 8.78931 36.0403C8.20335 36.1182 7.54416 36.274 6.81171 36.5076C6.1281 36.7023 5.44449 36.9165 4.76088 37.1502C4.12609 37.3449 3.58897 37.4422 3.1495 37.4422C2.46589 37.2865 1.83111 36.936 1.24515 36.3908C0.708028 35.8067 0.659198 35.0084 1.09866 33.9959C1.34281 34.3853 1.70903 34.5995 2.19733 34.6384C2.73445 34.6774 3.49131 34.6384 4.4679 34.5216C3.93077 34.4437 3.49131 34.288 3.1495 34.0543C2.8077 33.8207 2.63679 33.4507 2.63679 32.9445V28.4467C2.53913 27.9016 2.36823 27.4343 2.12408 27.0449C1.87994 26.6554 1.46488 26.3828 0.878931 26.2271C1.61137 26.0324 2.19733 25.935 2.63679 25.935V18.5751C2.53913 18.1467 2.3194 17.7573 1.97759 17.4068C1.63579 17.0564 0.97659 16.9201 0 16.998C0.292977 16.6475 0.537124 16.2775 0.732442 15.8881C0.97659 15.4987 1.26957 15.1093 1.61137 14.7199C2.00201 14.3305 2.4903 13.9605 3.07626 13.61C3.71104 13.2596 4.54114 12.9286 5.56656 12.617C6.00603 12.9286 6.37225 13.2596 6.66523 13.61C6.9582 13.9605 7.20235 14.2915 7.39767 14.6031C7.93479 14.2915 8.4475 13.941 8.9358 13.5516C9.42409 13.1622 9.91239 12.7533 10.4007 12.325C11.0843 13.1038 11.9388 13.7074 12.9642 14.1358C14.0385 14.5252 15.0639 14.6615 16.0405 14.5446C17.0171 13.9995 17.9693 13.2596 18.897 12.325Z" fill="#FEFEFE"/>
<path d="M36.6297 12.1497C35.3601 12.0719 34.2859 11.955 33.407 11.7993C32.528 11.6435 31.7956 11.4683 31.2096 11.2736C30.6725 11.0788 30.2575 10.8841 29.9645 10.6894C29.6715 10.4558 29.4518 10.2416 29.3053 10.0469C29.0123 9.65748 28.8902 9.22913 28.9391 8.76183C28.9879 8.29453 29.1344 7.78829 29.3785 7.24311C29.6715 6.65899 29.9889 6.0554 30.3307 5.43233C30.6725 4.80927 30.9899 4.10833 31.2829 3.3295C31.527 2.62855 31.6247 1.98601 31.5758 1.40189C31.5758 0.778828 31.3073 0.311531 30.7702 0C31.4538 0.233648 32.0886 0.506238 32.6745 0.817771C33.2605 1.09036 33.6999 1.42136 33.9929 1.81078C34.6277 2.70643 34.8474 3.64103 34.6521 4.61456C34.5056 5.5881 34.3103 6.54217 34.0662 7.47676C33.8708 8.41136 33.8708 9.28754 34.0662 10.1053C34.3103 10.9231 35.1648 11.6046 36.6297 12.1497ZM35.4578 34.3464C36.0926 34.3074 36.5809 34.4437 36.9227 34.7553C37.2645 35.0279 37.5086 35.5536 37.6551 36.3324C37.3621 36.0987 36.8983 36.0209 36.2635 36.0987C35.6287 36.1766 34.9695 36.3324 34.2859 36.566C33.6023 36.7607 32.9187 36.9749 32.235 37.2086C31.5514 37.4033 30.9899 37.5006 30.5504 37.5006C29.9156 37.3449 29.3053 36.9944 28.7193 36.4492C28.1822 35.8651 28.109 35.0668 28.4996 34.0543C28.7926 34.4437 29.1832 34.6579 29.6715 34.6968C30.2086 34.7358 30.9411 34.6968 31.8688 34.58C31.3317 34.5021 30.8922 34.3464 30.5504 34.1127C30.2086 33.8791 30.0377 33.5091 30.0377 33.0029V28.622C29.9889 28.0768 29.8424 27.59 29.5983 27.1617C29.3541 26.7333 28.9146 26.4413 28.2799 26.2855C28.9635 26.0518 29.5494 25.9545 30.0377 25.9934V16.7059C29.4518 16.5112 28.7682 16.1607 27.9869 15.6545C28.2799 15.2261 28.5484 14.8756 28.7926 14.6031C29.0367 14.2915 29.2564 14.0189 29.4518 13.7853C29.6959 13.5516 29.9156 13.3375 30.111 13.1427C30.3551 12.9091 30.5993 12.656 30.8434 12.3834C31.3805 13.2012 32.3815 13.9216 33.8464 14.5446C35.3113 15.1677 36.7762 15.6155 38.2411 15.8881C37.7528 16.0828 37.2889 16.2581 36.8494 16.4138C36.41 16.5696 35.9461 16.7059 35.4578 16.8227V34.3464Z" fill="#FEFEFE"/>
<path d="M51.7828 34.2296C52.5641 34.1517 53.1256 34.0933 53.4674 34.0543C53.8092 33.9764 54.1755 33.8012 54.5661 33.5286C53.9801 34.3074 53.3942 35.0668 52.8082 35.8067C52.2223 36.5466 51.2457 37.2475 49.8785 37.9095C48.1694 37.3643 46.6313 36.8386 45.2641 36.3324C43.8969 35.8262 42.554 35.4367 41.2356 35.1641C40.3567 35.242 39.6975 35.4173 39.2581 35.6899C38.8186 35.9235 38.3303 36.2156 37.7932 36.566C38.0373 36.0987 38.3059 35.6314 38.5989 35.1641C38.8918 34.6968 39.2825 34.249 39.7708 33.8207V28.3299C39.6731 27.7847 39.4778 27.3369 39.1848 26.9864C38.9407 26.597 38.55 26.3439 38.0129 26.2271C38.6965 25.9934 39.2825 25.8961 39.7708 25.935V19.977C39.6731 18.4193 39.3069 17.66 38.6721 17.6989C39.7463 17.1537 40.6741 16.5891 41.4554 16.0049C42.2855 15.3819 43.1156 14.8756 43.9457 14.4862C43.5062 13.3569 43.6527 12.2276 44.3852 11.0983C45.1176 9.96902 46.5581 8.89813 48.7066 7.88565C48.0229 8.50871 47.6567 9.15125 47.6079 9.81325C47.6079 10.4753 47.7788 11.1178 48.1206 11.7409C48.4624 12.325 48.8775 12.8702 49.3658 13.3764C49.9029 13.8826 50.3668 14.2915 50.7574 14.6031C51.9293 15.5376 52.7106 16.3165 53.1012 16.9395C53.4919 17.5237 53.5407 18.0688 53.2477 18.5751C52.9547 19.0813 52.3444 19.646 51.4166 20.269C50.4888 20.8532 49.2925 21.6125 47.8276 22.5471C48.2671 22.0409 48.4868 21.5346 48.4868 21.0284C48.5357 20.5222 48.438 20.0354 48.1939 19.5681C47.9497 19.0618 47.6079 18.5751 47.1684 18.1078C46.729 17.6405 46.2651 17.2121 45.7768 16.8227C45.6791 16.7059 45.5815 16.6085 45.4838 16.5307C45.3862 16.4138 45.2885 16.3165 45.1908 16.2386V32.594C46.3139 32.9055 47.4858 33.2365 48.7066 33.587C49.9761 33.9375 51.0015 34.1517 51.7828 34.2296Z" fill="#FEFEFE"/>
<path d="M74 13.3764C73.9023 13.9605 73.5361 14.5446 72.9013 15.1288C72.3154 15.6739 71.5829 16.1412 70.704 16.5307C70.997 16.7254 71.29 16.9201 71.5829 17.1148C71.9248 17.3095 72.291 17.5042 72.6816 17.6989C72.0468 17.66 71.6806 18.4193 71.5829 19.977V35.1057C71.5829 37.0528 70.7773 38.6884 69.1659 40.0124C67.5545 41.3753 65.1374 42.0373 61.9147 41.9984C62.9401 41.7258 63.7214 41.2974 64.2585 40.7133C64.8445 40.1292 65.2839 39.4866 65.5769 38.7857C65.8699 38.0848 66.0408 37.4033 66.0896 36.7413C66.1385 36.0793 66.1629 35.5146 66.1629 35.0473V28.5636C66.0652 28.0184 65.8943 27.5316 65.6502 27.1033C65.4548 26.6749 65.0398 26.3828 64.405 26.2271C65.0886 25.9934 65.6746 25.8961 66.1629 25.935V17.2316C64.8933 17.1537 63.7214 16.7838 62.6471 16.1218L62.2809 16.3554V34.288C62.8669 34.249 63.3308 34.3853 63.6726 34.6968C64.0144 34.9694 64.2585 35.4951 64.405 36.274C64.112 36.0403 63.6482 35.9624 63.0134 36.0403C62.3786 36.1182 61.7194 36.274 61.0358 36.5076C60.3522 36.7023 59.6685 36.9165 58.9849 37.1502C58.3501 37.3449 57.813 37.4422 57.3736 37.4422C56.6899 37.2865 56.0552 36.936 55.4692 36.3908C54.9321 35.8067 54.8833 35.0084 55.3227 33.9959C55.5669 34.3853 55.9331 34.5995 56.4214 34.6384C56.9585 34.6774 57.7154 34.6384 58.692 34.5216C58.106 34.4437 57.6421 34.288 57.3003 34.0543C57.0073 33.8207 56.8608 33.4507 56.8608 32.9445V28.5052C56.7632 27.96 56.5923 27.4927 56.3481 27.1033C56.104 26.6749 55.6645 26.3828 55.0297 26.2271C55.811 25.9934 56.4214 25.8961 56.8608 25.935V18.3414C56.8608 17.7184 56.7876 17.3484 56.6411 17.2316C56.4458 16.998 55.9575 16.7838 55.1762 16.5891C55.7134 16.5891 56.2749 16.5307 56.8608 16.4138V11.7409C56.812 11.1567 56.6655 10.4753 56.4214 9.69642C56.2261 8.91759 55.7378 8.29453 54.9565 7.82724C53.2963 7.28205 51.4408 6.98999 49.3899 6.95105C47.2903 6.91211 45.0929 7.04841 42.798 7.35994C40.4541 7.63253 38.0859 8.02194 35.6933 8.52818C33.3006 9.03442 31.0056 9.54066 28.8083 10.0469C26.5621 10.5531 24.4625 11.0204 22.5093 11.4488C20.5073 11.8771 18.7738 12.1303 17.309 12.2082C15.6976 12.0134 13.9641 11.5461 12.1086 10.8063C10.2531 10.0274 8.54406 8.76183 6.98152 7.00946C8.44641 7.86618 10.1554 8.43083 12.1086 8.70342C14.0618 8.93707 16.1859 8.99548 18.4809 8.87866C20.727 8.72289 23.0953 8.4503 25.5856 8.06088C28.027 7.63253 30.4929 7.20417 32.9832 6.77582C35.4247 6.34746 37.8418 5.95805 40.2344 5.60757C42.627 5.2571 44.8732 5.06239 46.9729 5.02345C49.0725 4.98451 51.0013 5.17921 52.7592 5.60757C54.4682 5.99699 55.8843 6.73687 57.0073 7.82724C57.0562 7.86618 57.105 7.88565 57.1538 7.88565C57.6421 6.44481 58.6431 5.27657 60.1568 4.38092C61.7194 3.44632 63.819 2.99849 66.4558 3.03743C65.4304 3.31002 64.6247 3.73838 64.0388 4.3225C63.5017 4.90663 63.0866 5.54916 62.7936 6.25011C62.5495 6.95105 62.403 7.63253 62.3542 8.29453C62.3053 8.95654 62.2809 9.52119 62.2809 9.98849V14.311C62.6716 13.9995 63.0866 13.6879 63.5261 13.3764C63.9655 13.0649 64.405 12.7144 64.8445 12.325C65.4304 12.9091 66.1385 13.3959 66.9686 13.7853C67.8475 14.1747 68.702 14.4278 69.5321 14.5446C70.411 14.6615 71.2411 14.642 72.0224 14.4862C72.8037 14.2915 73.4629 13.9216 74 13.3764Z" fill="#FEFEFE"/>
</svg>
