<svg width="16.000000" height="16.000000" viewBox="0 0 16 16" fill="none" xmlns="http://www.w3.org/2000/svg" xmlns:xlink="http://www.w3.org/1999/xlink">
	<desc>
			Created with Pixso.
	</desc>
	<defs/>
	<path id="Vector" d="M14 3.98438C11.7793 3.76562 9.54688 3.65234 7.32031 3.65234C6 3.65234 4.67969 3.71875 3.35938 3.85156L2 3.98438" stroke="#A3A3A3" stroke-opacity="1.000000" stroke-width="1.500000" stroke-linejoin="round" stroke-linecap="round"/>
	<path id="Vector" d="M5.66602 3.3125L5.8125 2.4375C5.91992 1.80469 6 1.33203 7.12695 1.33203L8.87305 1.33203C10 1.33203 10.0859 1.83203 10.1855 2.44531L10.332 3.3125" stroke="#A3A3A3" stroke-opacity="1.000000" stroke-width="1.500000" stroke-linejoin="round" stroke-linecap="round"/>
	<path id="Vector" d="M12.5664 6.09375L12.1328 12.8086C12.0605 13.8555 12 14.668 10.1406 14.668L5.85938 14.668C4 14.668 3.93945 13.8555 3.86719 12.8086L3.43359 6.09375" stroke="#A3A3A3" stroke-opacity="1.000000" stroke-width="1.500000" stroke-linejoin="round" stroke-linecap="round"/>
	<path id="Vector" d="M6.88672 11L9.10742 11" stroke="#A3A3A3" stroke-opacity="1.000000" stroke-width="1.500000" stroke-linejoin="round" stroke-linecap="round"/>
	<path id="Vector" d="M6.33398 8.33203L9.66797 8.33203" stroke="#A3A3A3" stroke-opacity="1.000000" stroke-width="1.500000" stroke-linejoin="round" stroke-linecap="round"/>
	<g opacity="0.000000"/>
</svg>
